# File created by Blade
# Date/Time:  Mon Sep 29 18:17:19 2014
#---------------------------------------------------------
:version 1.10
:name HOM
:units
  mass 1.0
  length 1.000000
  angle deg
:documentation
     Acclaim Skeleton File
:root
   axis xyz
   order TX TY TZ RX RY RZ
   position 0.000000 0.000000 0.000000
   orientation 0 0 0
:bonedata
   begin
      id 1
      name Spine_dum
      direction 0.000000 1.000000 0.000000
      length 7.508948
      axis 0.0 0.0 0.0 xyz
   end
   begin
      id 2
      name LeftUpLeg_dum
      direction 1.000000 0.000000 0.000000
      length 3.000560
      axis 0.0 0.0 0.0 xyz
   end
   begin
      id 3
      name RightUpLeg_dum
      direction -1.000000 0.000000 0.000000
      length 3.000560
      axis 0.0 0.0 0.0 xyz
   end
   begin
      id 4
      name Spine
      direction 0.000000 1.000000 0.000000
      length 0.000000
      axis 0.0 0.0 0.0 xyz
      dof rx ry rz
   end
   begin
      id 5
      name Spine_dum1
      direction 0.000000 1.000000 0.000000
      length 13.861154
      axis 0.0 0.0 0.0 xyz
   end
   begin
      id 6
      name Spine_dum2
      direction 0.000000 1.000000 0.000000
      length 8.204781
      axis 0.0 0.0 0.0 xyz
   end
   begin
      id 7
      name Spine_dum3
      direction 0.000000 1.000000 0.000000
      length 8.204781
      axis 0.0 0.0 0.0 xyz
   end
   begin
      id 8
      name Head
      direction 0.000000 1.000000 0.000000
      length 4.527550
      axis 0.0 0.0 0.0 xyz
      dof rx ry rz
   end
   begin
      id 9
      name LeftShoulder
      direction 1.000000 0.000000 0.000000
      length 6.635956
      axis 0.0 0.0 -90.0 xyz
      dof rx ry rz
   end
   begin
      id 10
      name LeftArm
      direction 1.000000 0.000000 0.000000
      length 10.274218
      axis 0.0 0.0 -90.0 xyz
      dof rx ry rz
   end
   begin
      id 11
      name LeftForeArm
      direction 1.000000 0.000000 0.000000
      length 8.522147
      axis 0.0 0.0 -90.0 xyz
      dof ry rz rx
   end
   begin
      id 12
      name LeftHand
      direction 0.000000 0.000000 0.000000
      length 0.000000
      axis 0.0 0.0 -90.0 xyz
      dof rx ry rz
   end
   begin
      id 13
      name LeftHand_dum1
      direction 0.000000 0.000000 0.000000
      length 0.000000
      axis 0.0 0.0 -90.0 xyz
   end
   begin
      id 14
      name LeftHand_dum2
      direction 1.000000 0.000000 0.000000
      length 3.937000
      axis 0.0 0.0 -90.0 xyz
   end
   begin
      id 15
      name LeftHandThumb1
      direction 0.000000 0.000000 1.000000
      length 3.937000
      axis 0.0 0.0 -90.0 xyz
      dof rx rz ry
   end
   begin
      id 16
      name RightShoulder
      direction -1.000000 0.000000 0.000000
      length 6.635956
      axis 0.0 0.0 90.0 xyz
      dof rx ry rz
   end
   begin
      id 17
      name RightArm
      direction -1.000000 0.000000 0.000000
      length 10.274218
      axis 0.0 0.0 90.0 xyz
      dof rx ry rz
   end
   begin
      id 18
      name RightForeArm
      direction -1.000000 0.000000 0.000000
      length 8.522147
      axis 0.0 0.0 90.0 xyz
      dof ry rz rx
   end
   begin
      id 19
      name RightHand
      direction 0.000000 0.000000 0.000000
      length 0.000000
      axis 0.0 0.0 90.0 xyz
      dof rx ry rz
   end
   begin
      id 20
      name RightHand_dum1
      direction 0.000000 0.000000 0.000000
      length 0.000000
      axis 0.0 0.0 90.0 xyz
   end
   begin
      id 21
      name RightHand_dum2
      direction -1.000000 0.000000 0.000000
      length 3.937000
      axis 0.0 0.0 90.0 xyz
   end
   begin
      id 22
      name RightHandThumb1
      direction 0.000000 0.000000 1.000000
      length 3.937000
      axis 0.0 0.0 90.0 xyz
      dof rx rz ry
   end
   begin
      id 23
      name LeftUpLeg
      direction 0.000000 -1.000000 0.000000
      length 16.490845
      axis 0.0 0.0 0.0 xyz
      dof rx ry rz
   end
   begin
      id 24
      name LeftLeg
      direction 0.000000 -1.000000 0.000000
      length 14.556576
      axis 0.0 0.0 0.0 xyz
      dof rx ry rz
   end
   begin
      id 25
      name LeftFoot
      direction 0.000000 -0.258819 0.965926
      length 4.831116
      axis 15.0 0.0 0.0 xyz
      dof rx ry rz
   end
   begin
      id 26
      name LeftToeBase
      direction 0.000000 0.000000 1.000000
      length 2.952750
      axis 0.0 0.0 0.0 xyz
      dof rx ry rz
   end
   begin
      id 27
      name RightUpLeg
      direction 0.000000 -1.000000 0.000000
      length 16.490845
      axis 0.0 0.0 0.0 xyz
      dof rx ry rz
   end
   begin
      id 28
      name RightLeg
      direction 0.000000 -1.000000 0.000000
      length 14.556576
      axis 0.0 0.0 0.0 xyz
      dof rx ry rz
   end
   begin
      id 29
      name RightFoot
      direction 0.000000 -0.258819 0.965926
      length 4.831116
      axis 15.0 0.0 0.0 xyz
      dof rx ry rz
   end
   begin
      id 30
      name RightToeBase
      direction 0.000000 0.000000 1.000000
      length 2.952750
      axis 0.0 0.0 0.0 xyz
      dof rx ry rz
   end
:hierarchy
   begin
      root Spine_dum LeftUpLeg_dum RightUpLeg_dum
      Spine_dum Spine
      LeftUpLeg_dum LeftUpLeg
      RightUpLeg_dum RightUpLeg
      Spine Spine_dum1 Spine_dum2 Spine_dum3
      Spine_dum1 Head
      Spine_dum2 LeftShoulder
      Spine_dum3 RightShoulder
      LeftShoulder LeftArm
      LeftArm LeftForeArm
      LeftForeArm LeftHand
      LeftHand LeftHand_dum1 LeftHand_dum2
      LeftHand_dum1 LeftHandThumb1
      RightShoulder RightArm
      RightArm RightForeArm
      RightForeArm RightHand
      RightHand RightHand_dum1 RightHand_dum2
      RightHand_dum1 RightHandThumb1
      LeftUpLeg LeftLeg
      LeftLeg LeftFoot
      LeftFoot LeftToeBase
      RightUpLeg RightLeg
      RightLeg RightFoot
      RightFoot RightToeBase
   end

# File created by Blade
# Date/Time:  Mon Sep 29 17:58:21 2014
# Frame Rate: 120.000 fps
#------------------------------------------------------
:FULLY-SPECIFIED
:DEGREES
106
root 0.587023 32.965774 -2.497653 14.652249 -5.281454 -2.660855
Spine -6.862886 6.331189 -7.403555
Head -6.433498 -8.420403 15.045178
LeftShoulder -9.898925 16.105745 19.333169
LeftArm 24.248715 -4.802648 -49.094425
LeftForeArm 4.647564 0.000000 25.929046
LeftHand -24.939381 -0.000000 0.446366
LeftHandThumb1 -26.253704 0.000000 33.147579
RightShoulder -18.732551 16.661299 -24.030332
RightArm -3.950927 -13.860022 72.413931
RightForeArm -28.688963 -0.000000 20.690245
RightHand -5.630648 0.000000 8.169345
RightHandThumb1 -24.326973 -0.000000 -32.862282
LeftUpLeg -11.402979 12.624268 0.038342
LeftLeg -1.244599 -0.000000 0.000000
LeftFoot -10.321335 8.008335 -9.753429
LeftToeBase 12.584454 -0.000000 -0.000000
RightUpLeg -23.634997 -5.678660 -1.131234
RightLeg 19.011310 -0.000000 -0.000000
RightFoot -9.407662 1.091161 10.366739
RightToeBase -2.690855 -0.000000 0.000000
107
root 0.582543 32.964253 -2.526793 14.707163 -5.606822 -2.690409
Spine -6.678026 6.382482 -7.543625
Head -6.748821 -8.217172 15.106086
LeftShoulder -9.901887 16.327588 19.152006
LeftArm 24.374897 -4.217898 -49.695413
LeftForeArm 4.949829 -0.000000 26.743018
LeftHand -24.894066 0.000000 0.321619
LeftHandThumb1 -26.253704 0.000000 33.147579
RightShoulder -18.622450 16.672404 -23.839136
RightArm -3.986890 -14.288237 73.345927
RightForeArm -28.670256 -0.000000 21.085933
RightHand -5.396162 -0.000000 8.201193
RightHandThumb1 -24.326973 -0.000000 -32.862282
LeftUpLeg -11.465682 12.791819 0.021681
LeftLeg -1.254041 -0.000000 0.000000
LeftFoot -10.343476 8.084557 -9.963593
LeftToeBase 12.508617 -0.000000 -0.000000
RightUpLeg -24.177573 -5.703033 -1.172505
RightLeg 19.880004 -0.000000 -0.000000
RightFoot -9.521742 1.333882 9.842045
RightToeBase -3.056977 -0.000000 0.000000
108
root 0.577327 32.962502 -2.555599 14.767287 -5.909878 -2.709467
Spine -6.499610 6.448053 -7.673877
Head -7.101201 -8.024511 15.169599
LeftShoulder -9.865110 16.432678 18.980717
LeftArm 24.428140 -3.550168 -50.272951
LeftForeArm 5.277954 0.000000 27.574344
LeftHand -24.910019 0.000000 0.499592
LeftHandThumb1 -26.253704 0.000000 33.147579
RightShoulder -18.552721 16.666189 -23.657505
RightArm -3.999320 -14.796638 74.215911
RightForeArm -28.671817 0.000000 21.481937
RightHand -5.178271 0.000000 8.035282
RightHandThumb1 -24.326973 -0.000000 -32.862282
LeftUpLeg -11.550003 12.963484 -0.005941
LeftLeg -1.220156 -0.000000 0.000000
LeftFoot -10.443543 8.248808 -9.907704
LeftToeBase 12.761024 -0.000000 -0.000000
RightUpLeg -24.683437 -5.788036 -1.214330
RightLeg 20.675291 -0.000000 -0.000000
RightFoot -9.704144 1.205745 9.249441
RightToeBase -3.249411 -0.000000 0.000000
109
root 0.577026 32.959238 -2.578840 14.818876 -6.165543 -2.679692
Spine -6.323320 6.440576 -7.813107
Head -7.422656 -7.899635 15.132855
LeftShoulder -9.890079 16.580399 18.773591
LeftArm 24.548051 -2.953472 -50.884137
LeftForeArm 5.813546 -0.000000 28.334425
LeftHand -24.838011 -0.000000 0.714574
LeftHandThumb1 -26.253704 0.000000 33.147579
RightShoulder -18.481844 16.729819 -23.483911
RightArm -4.068866 -15.360707 75.013521
RightForeArm -28.712536 0.000000 21.930068
RightHand -4.986988 -0.000000 7.955902
RightHandThumb1 -24.326973 -0.000000 -32.862282
LeftUpLeg -11.627208 13.114894 -0.086250
LeftLeg -1.197999 -0.000000 0.000000
LeftFoot -10.470153 8.296372 -10.065045
LeftToeBase 12.717490 -0.000000 -0.000000
RightUpLeg -25.152780 -5.891235 -1.356056
RightLeg 21.443267 -0.000000 -0.000000
RightFoot -10.129183 0.708632 9.312414
RightToeBase -2.308775 -0.000000 0.000000
110
root 0.576675 32.955293 -2.594450 14.829312 -6.400869 -2.623696
Spine -6.117445 6.433420 -7.963716
Head -7.755088 -7.669396 15.140909
LeftShoulder -9.948047 16.817702 18.553807
LeftArm 24.794930 -2.360167 -51.483613
LeftForeArm 6.380464 -0.000000 29.077031
LeftHand -24.812096 -0.000000 0.878450
LeftHandThumb1 -26.253704 0.000000 33.147579
RightShoulder -18.422150 16.782036 -23.298596
RightArm -4.149437 -15.944079 75.750695
RightForeArm -28.804018 -0.000000 22.443529
RightHand -4.977064 -0.000000 7.928482
RightHandThumb1 -24.326973 -0.000000 -32.862282
LeftUpLeg -11.649237 13.292952 -0.188613
LeftLeg -1.191519 -0.000000 0.000000
LeftFoot -10.492077 8.298265 -10.211254
LeftToeBase 12.700336 -0.000000 -0.000000
RightUpLeg -25.556346 -6.061329 -1.529644
RightLeg 22.181476 -0.000000 -0.000000
RightFoot -10.638867 -0.227778 9.384766
RightToeBase -2.015612 -0.000000 0.000000
111
root 0.578223 32.950581 -2.610482 14.839296 -6.595246 -2.565931
Spine -5.920635 6.461131 -8.079390
Head -8.040943 -7.520464 15.116978
LeftShoulder -9.920403 16.835394 18.377368
LeftArm 24.875160 -1.713204 -52.166557
LeftForeArm 6.906257 0.000000 29.829183
LeftHand -24.798379 -0.000000 0.981055
LeftHandThumb1 -26.253704 0.000000 33.147579
RightShoulder -18.375872 16.779324 -23.131880
RightArm -4.239609 -16.480287 76.427483
RightForeArm -28.972403 -0.000000 23.008017
RightHand -4.940263 -0.000000 7.879693
RightHandThumb1 -24.326973 -0.000000 -32.862282
LeftUpLeg -11.685445 13.432600 -0.287965
LeftLeg -1.159725 -0.000000 0.000000
LeftFoot -10.556310 8.348687 -10.309399
LeftToeBase 12.705863 -0.000000 -0.000000
RightUpLeg -25.927778 -6.363869 -1.679229
RightLeg 22.836927 -0.000000 -0.000000
RightFoot -11.172240 -1.443195 9.368023
RightToeBase -2.133158 -0.000000 0.000000
